<svg width="174" height="73" viewBox="0 0 174 73" fill="none" xmlns="http://www.w3.org/2000/svg">
<path d="M0.417969 72L15.5059 0.613281H35.1348C39.627 0.613281 43.5007 1.16667 46.7559 2.27344C50.0111 3.38021 52.5176 5.10547 54.2754 7.44922C56.0658 9.79297 56.9609 12.8529 56.9609 16.6289C56.9609 19.8516 56.3099 22.7161 55.0078 25.2227C53.7383 27.6966 51.9154 29.7474 49.5391 31.375C47.1953 32.9701 44.3796 34.0931 41.0918 34.7441V35.1836C44.3796 36.0625 47.0488 37.6901 49.0996 40.0664C51.1504 42.4102 52.1758 45.4701 52.1758 49.2461C52.1758 54.3893 50.9551 58.6536 48.5137 62.0391C46.1048 65.3919 42.8008 67.8984 38.6016 69.5586C34.4349 71.1862 29.6823 72 24.3438 72H0.417969ZM14.041 62.1855H24.9785C28.1035 62.1855 30.8053 61.6973 33.084 60.7207C35.3952 59.7441 37.1693 58.2956 38.4062 56.375C39.6758 54.4544 40.3105 52.0944 40.3105 49.2949C40.3105 46.3327 39.3828 43.9564 37.5273 42.166C35.7044 40.3757 32.7747 39.4805 28.7383 39.4805H18.875L14.041 62.1855ZM20.8281 30.0566H30.5938C33.3607 30.0566 35.8184 29.666 37.9668 28.8848C40.1478 28.071 41.8568 26.834 43.0938 25.1738C44.3633 23.4811 44.998 21.3327 44.998 18.7285C44.998 15.9941 44.1191 13.9108 42.3613 12.4785C40.6361 11.0462 37.8691 10.3301 34.0605 10.3301H25.0273L20.8281 30.0566ZM60.2227 72L69.8789 26.3125H81.3789C86.9622 26.3125 91.306 27.8021 94.4102 30.7812C97.5143 33.7396 99.0664 38.1667 99.0664 44.0625C99.0664 47.3542 98.6914 50.4271 97.9414 53.2812C97.2122 56.1354 96.1289 58.7188 94.6914 61.0312C93.2539 63.3229 91.4727 65.2917 89.3477 66.9375C87.2227 68.5625 84.7747 69.8125 82.0039 70.6875C79.2331 71.5625 76.1602 72 72.7852 72H60.2227ZM68.9414 65.7188H73.1602C75.5768 65.7188 77.7539 65.3542 79.6914 64.625C81.6497 63.8958 83.3581 62.875 84.8164 61.5625C86.2747 60.2292 87.4935 58.6667 88.4727 56.875C89.4518 55.0833 90.181 53.125 90.6602 51C91.1602 48.8542 91.4102 46.6146 91.4102 44.2812C91.4102 40.2188 90.431 37.25 88.4727 35.375C86.5352 33.4792 83.9102 32.5312 80.5977 32.5312H75.9727L68.9414 65.7188ZM102.598 72L109.941 37.4062H117.254L109.91 72H102.598ZM115.223 32.2188C114.139 32.2188 113.233 31.9583 112.504 31.4375C111.775 30.8958 111.41 30.0521 111.41 28.9062C111.41 27.9479 111.587 27.1146 111.941 26.4062C112.316 25.6979 112.848 25.1562 113.535 24.7812C114.243 24.3854 115.087 24.1875 116.066 24.1875C117.15 24.1875 118.035 24.4479 118.723 24.9688C119.41 25.4688 119.754 26.2812 119.754 27.4062C119.754 28.8646 119.348 30.0312 118.535 30.9062C117.723 31.7812 116.618 32.2188 115.223 32.2188ZM134.535 72.625C132.056 72.625 129.848 72.1667 127.91 71.25C125.973 70.3333 124.452 68.9271 123.348 67.0312C122.243 65.1354 121.691 62.7188 121.691 59.7812C121.691 57.3021 121.952 54.9271 122.473 52.6562C123.014 50.3646 123.796 48.2604 124.816 46.3438C125.837 44.4062 127.087 42.7292 128.566 41.3125C130.046 39.875 131.733 38.7604 133.629 37.9688C135.525 37.1562 137.618 36.75 139.91 36.75C141.702 36.75 143.379 36.9271 144.941 37.2812C146.504 37.6146 147.941 38.0833 149.254 38.6875L147.066 44.4688C146.066 44.0104 144.993 43.6146 143.848 43.2812C142.723 42.9271 141.483 42.75 140.129 42.75C138.441 42.75 136.921 43.2083 135.566 44.125C134.212 45.0208 133.056 46.2604 132.098 47.8438C131.139 49.4062 130.4 51.1771 129.879 53.1562C129.379 55.1354 129.129 57.2083 129.129 59.375C129.129 60.9167 129.389 62.2292 129.91 63.3125C130.431 64.3958 131.181 65.2292 132.16 65.8125C133.16 66.375 134.358 66.6562 135.754 66.6562C137.296 66.6562 138.743 66.4375 140.098 66C141.452 65.5417 142.806 64.9792 144.16 64.3125V70.375C142.868 71.0625 141.431 71.6042 139.848 72C138.264 72.4167 136.493 72.625 134.535 72.625ZM160.91 72.625C158.389 72.625 156.337 72.0625 154.754 70.9375C153.191 69.7917 152.41 67.7917 152.41 64.9375C152.41 64.375 152.441 63.7604 152.504 63.0938C152.587 62.4062 152.702 61.6979 152.848 60.9688L156.66 42.9688H151.66L152.348 39.4688L158.254 37.0625L162.191 29.75H166.785L165.16 37.4062H173.973L172.785 42.9688H164.004L160.16 61C160.056 61.4375 159.962 61.9062 159.879 62.4062C159.816 62.8854 159.785 63.3229 159.785 63.7188C159.785 64.6562 160.046 65.3854 160.566 65.9062C161.087 66.4271 161.879 66.6875 162.941 66.6875C163.754 66.6875 164.535 66.6042 165.285 66.4375C166.035 66.2708 166.858 66.0312 167.754 65.7188V71.25C166.983 71.6042 165.983 71.9167 164.754 72.1875C163.525 72.4792 162.243 72.625 160.91 72.625Z" fill="#1D1D1D"/>
</svg>
