<svg width="30" height="30" viewBox="0 0 30 30" fill="none" xmlns="http://www.w3.org/2000/svg">
<path fill-rule="evenodd" clip-rule="evenodd" d="M17.9375 1.5625H12.8675C10.57 1.5625 8.75 1.5625 7.32625 1.75375C5.86125 1.95125 4.675 2.36625 3.73875 3.30125C2.80375 4.2375 2.38875 5.42375 2.19125 6.88875C2 8.31375 2 10.1325 2 12.43V20C2.00003 21.1168 2.39867 22.1969 3.12417 23.0459C3.84967 23.8949 4.85439 24.4571 5.9575 24.6313C6.12875 25.5863 6.46 26.4013 7.1225 27.065C7.875 27.8175 8.8225 28.14 9.9475 28.2925C11.0312 28.4375 12.41 28.4375 14.1187 28.4375H18.0063C19.715 28.4375 21.0938 28.4375 22.1775 28.2925C23.3025 28.14 24.25 27.8175 25.0025 27.065C25.755 26.3125 26.0775 25.365 26.23 24.24C26.375 23.1562 26.375 21.7775 26.375 20.0688V13.6812C26.375 11.9725 26.375 10.5938 26.23 9.51C26.0775 8.385 25.755 7.4375 25.0025 6.685C24.3388 6.0225 23.5238 5.69125 22.5688 5.52C22.3946 4.41689 21.8324 3.41217 20.9834 2.68667C20.1344 1.96117 19.0543 1.56253 17.9375 1.5625ZM20.6 5.33875C20.4099 4.78375 20.0511 4.30207 19.5736 3.96116C19.0962 3.62024 18.5241 3.43714 17.9375 3.4375H12.9375C10.5538 3.4375 8.86125 3.44 7.575 3.6125C6.31875 3.78125 5.59375 4.09875 5.065 4.6275C4.53625 5.15625 4.21875 5.88125 4.05 7.13875C3.8775 8.42375 3.875 10.1163 3.875 12.5V20C3.87464 20.5866 4.05774 21.1587 4.39866 21.6361C4.73957 22.1136 5.22125 22.4724 5.77625 22.6625C5.75 21.9 5.75 21.0375 5.75 20.0688V13.6812C5.75 11.9725 5.75 10.5938 5.89625 9.51C6.04625 8.385 6.37125 7.4375 7.1225 6.685C7.875 5.9325 8.8225 5.61 9.9475 5.45875C11.0312 5.3125 12.41 5.3125 14.1187 5.3125H18.0063C18.975 5.3125 19.8375 5.3125 20.6 5.33875ZM8.4475 8.0125C8.79375 7.66625 9.27875 7.44125 10.1975 7.3175C11.14 7.19125 12.3925 7.18875 14.1862 7.18875H17.9362C19.73 7.18875 20.9813 7.19125 21.9263 7.3175C22.8438 7.44125 23.3288 7.6675 23.675 8.0125C24.0212 8.35875 24.2463 8.84375 24.37 9.7625C24.4963 10.705 24.4988 11.9575 24.4988 13.7513V20.0012C24.4988 21.795 24.4963 23.0463 24.37 23.9913C24.2463 24.9088 24.02 25.3937 23.675 25.74C23.3288 26.0862 22.8438 26.3113 21.925 26.435C20.9813 26.5613 19.73 26.5637 17.9362 26.5637H14.1862C12.3925 26.5637 11.14 26.5613 10.1962 26.435C9.27875 26.3113 8.79375 26.085 8.4475 25.74C8.10125 25.3937 7.87625 24.9087 7.7525 23.99C7.62625 23.0462 7.62375 21.795 7.62375 20.0012V13.7513C7.62375 11.9575 7.62625 10.705 7.7525 9.76125C7.87625 8.84375 8.1025 8.35875 8.4475 8.0125Z" fill="black"/>
</svg>
