<svg width="360" height="287" viewBox="0 0 360 287" fill="none" xmlns="http://www.w3.org/2000/svg">
<path d="M360 287L179.497 223.382L0.999992 157.212V0H360V287Z" fill="#588157"/>
<g filter="url(#filter0_d_753_132)">
<path d="M1 249L179.508 195.109L360 138.224V4.05312e-06H1V249Z" fill="#3E8445"/>
</g>
<g filter="url(#filter1_d_753_132)">
<path d="M1 180L182.006 124.604L361 68.5166V0H1V180Z" fill="#588157"/>
</g>
<path d="M70.7127 214.54L59.3918 182.174L64.4528 180.611L70.7986 199.648C71.1974 200.833 71.5841 202.112 71.9589 203.484C72.3291 204.842 72.6539 206.132 72.9331 207.354L73.0899 207.305C73.1437 205.997 73.2226 204.558 73.3266 202.989C73.4409 201.4 73.5916 199.955 73.7787 198.654L76.6574 176.841L81.6065 175.313L88.2157 194.171C88.6074 195.227 89.0292 196.487 89.4811 197.95C89.9283 199.398 90.3117 200.719 90.6312 201.912L90.7879 201.864C90.8077 200.975 90.836 200.034 90.8728 199.041C90.9246 198.044 90.9787 197.054 91.0351 196.072C91.1018 195.07 91.1795 194.13 91.2682 193.253L93.4976 171.64L98.9616 169.953L94.4053 207.222L88.6053 209.014L82.2312 190.917C81.897 189.941 81.5928 189.062 81.3186 188.28C81.0547 187.478 80.8069 186.729 80.5753 186.032C80.3586 185.33 80.1516 184.634 79.9544 183.942L79.7977 183.991C79.7966 185.152 79.7513 186.303 79.6618 187.442C79.5676 188.567 79.4311 189.819 79.2522 191.199L76.4231 212.776L70.7127 214.54ZM106.588 203.46L103.396 168.583L120.84 163.195L121.275 168.016L109.137 171.765L110.002 181.236L121.355 177.73L121.805 182.521L110.451 186.028L111.431 196.984L123.569 193.236L124.01 198.079L106.588 203.46ZM130.862 195.963L127.67 161.086L132.978 159.447L135.699 189.465L147.837 185.716L148.285 190.582L130.862 195.963ZM167.189 185.234C164.651 186.018 162.342 186.167 160.262 185.681C158.193 185.175 156.41 184.115 154.914 182.5C153.418 180.885 152.268 178.779 151.466 176.182C150.857 174.211 150.468 172.156 150.298 170.017C150.143 167.874 150.252 165.763 150.624 163.686C150.992 161.594 151.663 159.637 152.637 157.815C153.607 155.978 154.908 154.366 156.54 152.979C158.183 151.572 160.198 150.5 162.587 149.762C164.408 149.2 166.051 148.881 167.516 148.804C168.995 148.723 170.493 148.833 172.009 149.134L171.275 154.144C170.153 153.901 169 153.767 167.814 153.741C166.629 153.715 165.356 153.911 163.998 154.331C162.341 154.843 160.952 155.615 159.832 156.648C158.727 157.676 157.857 158.885 157.224 160.274C156.605 161.659 156.198 163.15 156.005 164.747C155.807 166.329 155.788 167.937 155.95 169.572C156.106 171.192 156.418 172.755 156.883 174.263C157.709 176.935 158.965 178.804 160.651 179.87C162.333 180.92 164.375 181.074 166.779 180.332C168.048 179.94 169.258 179.411 170.41 178.745C171.576 178.074 172.695 177.327 173.766 176.506L175.177 181.074C174.252 181.785 173.145 182.519 171.858 183.277C170.582 184.014 169.025 184.667 167.189 185.234ZM195.047 176.63C192.404 177.446 190.021 177.618 187.896 177.146C185.782 176.654 183.969 175.603 182.458 173.993C180.962 172.378 179.822 170.302 179.038 167.764C178.485 165.973 178.1 164.17 177.883 162.356C177.677 160.523 177.645 158.726 177.788 156.965C177.931 155.203 178.267 153.513 178.797 151.894C179.342 150.27 180.092 148.78 181.046 147.422C181.996 146.049 183.164 144.854 184.551 143.837C185.953 142.816 187.579 142.019 189.43 141.447C193.252 140.267 196.526 140.49 199.253 142.118C201.994 143.74 203.962 146.485 205.157 150.352C205.71 152.143 206.107 153.958 206.348 155.797C206.599 157.617 206.663 159.412 206.54 161.184C206.427 162.936 206.12 164.617 205.62 166.227C205.115 167.822 204.393 169.296 203.453 170.649C202.529 171.997 201.368 173.19 199.971 174.226C198.584 175.243 196.943 176.045 195.047 176.63ZM193.943 171.943C195.032 171.606 195.995 171.096 196.831 170.413C197.666 169.73 198.371 168.915 198.946 167.969C199.531 167.003 199.982 165.924 200.3 164.73C200.633 163.531 200.827 162.253 200.882 160.895C200.952 159.532 200.89 158.113 200.695 156.635C200.496 155.143 200.159 153.629 199.684 152.091C198.914 149.598 197.718 147.817 196.096 146.748C194.489 145.674 192.603 145.472 190.438 146.14C189.318 146.486 188.328 147.013 187.467 147.72C186.617 148.408 185.896 149.252 185.306 150.252C184.71 151.237 184.249 152.336 183.92 153.55C183.602 154.744 183.408 156.022 183.338 157.384C183.269 158.747 183.329 160.159 183.519 161.621C183.719 163.064 184.05 164.532 184.511 166.025C185.036 167.727 185.755 169.099 186.666 170.143C187.591 171.181 188.666 171.855 189.89 172.164C191.129 172.468 192.48 172.394 193.943 171.943ZM214.548 170.117L211.356 135.24L218.544 133.02L228.96 158.086L229.139 158.031L234.802 127.998L242.439 125.64L245.675 160.503L240.637 162.059L238.888 142.975C238.777 141.767 238.682 140.561 238.605 139.359C238.524 138.141 238.453 136.986 238.393 135.892C238.348 134.794 238.313 133.832 238.287 133.006L238.13 133.054L232.105 164.694L227.469 166.126L216.52 139.728L216.341 139.784C216.479 140.444 216.626 141.315 216.779 142.396C216.933 143.476 217.09 144.646 217.25 145.905C217.405 147.149 217.537 148.368 217.643 149.561L219.407 168.616L214.548 170.117ZM253.939 157.951L250.747 123.074L268.191 117.686L268.626 122.507L256.488 126.256L257.353 135.727L268.707 132.221L269.156 137.012L257.803 140.519L258.782 151.475L270.92 147.727L271.361 152.57L253.939 157.951Z" fill="white"/>
<defs>
<filter id="filter0_d_753_132" x="-3" y="0" width="367" height="257" filterUnits="userSpaceOnUse" color-interpolation-filters="sRGB">
<feFlood flood-opacity="0" result="BackgroundImageFix"/>
<feColorMatrix in="SourceAlpha" type="matrix" values="0 0 0 0 0 0 0 0 0 0 0 0 0 0 0 0 0 0 127 0" result="hardAlpha"/>
<feOffset dy="4"/>
<feGaussianBlur stdDeviation="2"/>
<feComposite in2="hardAlpha" operator="out"/>
<feColorMatrix type="matrix" values="0 0 0 0 0 0 0 0 0 0 0 0 0 0 0 0 0 0 0.25 0"/>
<feBlend mode="normal" in2="BackgroundImageFix" result="effect1_dropShadow_753_132"/>
<feBlend mode="normal" in="SourceGraphic" in2="effect1_dropShadow_753_132" result="shape"/>
</filter>
<filter id="filter1_d_753_132" x="-3" y="0" width="368" height="188" filterUnits="userSpaceOnUse" color-interpolation-filters="sRGB">
<feFlood flood-opacity="0" result="BackgroundImageFix"/>
<feColorMatrix in="SourceAlpha" type="matrix" values="0 0 0 0 0 0 0 0 0 0 0 0 0 0 0 0 0 0 127 0" result="hardAlpha"/>
<feOffset dy="4"/>
<feGaussianBlur stdDeviation="2"/>
<feComposite in2="hardAlpha" operator="out"/>
<feColorMatrix type="matrix" values="0 0 0 0 0 0 0 0 0 0 0 0 0 0 0 0 0 0 0.25 0"/>
<feBlend mode="normal" in2="BackgroundImageFix" result="effect1_dropShadow_753_132"/>
<feBlend mode="normal" in="SourceGraphic" in2="effect1_dropShadow_753_132" result="shape"/>
</filter>
</defs>
</svg>
