<svg width="360" height="292" viewBox="0 0 360 292" fill="none" xmlns="http://www.w3.org/2000/svg">
<path d="M92.8281 218.362L107.916 146.976H127.545C132.037 146.976 135.911 147.529 139.166 148.636C142.421 149.743 144.928 151.468 146.686 153.812C148.476 156.155 149.371 159.215 149.371 162.991C149.371 166.214 148.72 169.078 147.418 171.585C146.148 174.059 144.326 176.11 141.949 177.737C139.605 179.332 136.79 180.455 133.502 181.106V181.546C136.79 182.425 139.459 184.052 141.51 186.429C143.561 188.772 144.586 191.832 144.586 195.608C144.586 200.752 143.365 205.016 140.924 208.401C138.515 211.754 135.211 214.261 131.012 215.921C126.845 217.549 122.092 218.362 116.754 218.362H92.8281ZM106.451 208.548H117.389C120.514 208.548 123.215 208.06 125.494 207.083C127.805 206.106 129.579 204.658 130.816 202.737C132.086 200.817 132.721 198.457 132.721 195.657C132.721 192.695 131.793 190.319 129.938 188.528C128.115 186.738 125.185 185.843 121.148 185.843H111.285L106.451 208.548ZM113.238 176.419H123.004C125.771 176.419 128.229 176.028 130.377 175.247C132.558 174.433 134.267 173.196 135.504 171.536C136.773 169.843 137.408 167.695 137.408 165.091C137.408 162.356 136.529 160.273 134.771 158.841C133.046 157.409 130.279 156.692 126.471 156.692H117.438L113.238 176.419ZM152.633 218.362L162.289 172.675H173.789C179.372 172.675 183.716 174.164 186.82 177.144C189.924 180.102 191.477 184.529 191.477 190.425C191.477 193.716 191.102 196.789 190.352 199.644C189.622 202.498 188.539 205.081 187.102 207.394C185.664 209.685 183.883 211.654 181.758 213.3C179.633 214.925 177.185 216.175 174.414 217.05C171.643 217.925 168.57 218.362 165.195 218.362H152.633ZM161.352 212.081H165.57C167.987 212.081 170.164 211.716 172.102 210.987C174.06 210.258 175.768 209.237 177.227 207.925C178.685 206.591 179.904 205.029 180.883 203.237C181.862 201.446 182.591 199.487 183.07 197.362C183.57 195.216 183.82 192.977 183.82 190.644C183.82 186.581 182.841 183.612 180.883 181.737C178.945 179.841 176.32 178.894 173.008 178.894H168.383L161.352 212.081ZM195.008 218.362L202.352 183.769H209.664L202.32 218.362H195.008ZM207.633 178.581C206.549 178.581 205.643 178.321 204.914 177.8C204.185 177.258 203.82 176.414 203.82 175.269C203.82 174.31 203.997 173.477 204.352 172.769C204.727 172.06 205.258 171.519 205.945 171.144C206.654 170.748 207.497 170.55 208.477 170.55C209.56 170.55 210.445 170.81 211.133 171.331C211.82 171.831 212.164 172.644 212.164 173.769C212.164 175.227 211.758 176.394 210.945 177.269C210.133 178.144 209.029 178.581 207.633 178.581ZM226.945 218.987C224.466 218.987 222.258 218.529 220.32 217.612C218.383 216.696 216.862 215.289 215.758 213.394C214.654 211.498 214.102 209.081 214.102 206.144C214.102 203.664 214.362 201.289 214.883 199.019C215.424 196.727 216.206 194.623 217.227 192.706C218.247 190.769 219.497 189.091 220.977 187.675C222.456 186.237 224.143 185.123 226.039 184.331C227.935 183.519 230.029 183.112 232.32 183.112C234.112 183.112 235.789 183.289 237.352 183.644C238.914 183.977 240.352 184.446 241.664 185.05L239.477 190.831C238.477 190.373 237.404 189.977 236.258 189.644C235.133 189.289 233.893 189.112 232.539 189.112C230.852 189.112 229.331 189.571 227.977 190.487C226.622 191.383 225.466 192.623 224.508 194.206C223.549 195.769 222.81 197.539 222.289 199.519C221.789 201.498 221.539 203.571 221.539 205.737C221.539 207.279 221.799 208.591 222.32 209.675C222.841 210.758 223.591 211.591 224.57 212.175C225.57 212.737 226.768 213.019 228.164 213.019C229.706 213.019 231.154 212.8 232.508 212.362C233.862 211.904 235.216 211.341 236.57 210.675V216.737C235.279 217.425 233.841 217.966 232.258 218.362C230.674 218.779 228.904 218.987 226.945 218.987ZM253.32 218.987C250.799 218.987 248.747 218.425 247.164 217.3C245.602 216.154 244.82 214.154 244.82 211.3C244.82 210.737 244.852 210.123 244.914 209.456C244.997 208.769 245.112 208.06 245.258 207.331L249.07 189.331H244.07L244.758 185.831L250.664 183.425L254.602 176.112H259.195L257.57 183.769H266.383L265.195 189.331H256.414L252.57 207.362C252.466 207.8 252.372 208.269 252.289 208.769C252.227 209.248 252.195 209.685 252.195 210.081C252.195 211.019 252.456 211.748 252.977 212.269C253.497 212.789 254.289 213.05 255.352 213.05C256.164 213.05 256.945 212.966 257.695 212.8C258.445 212.633 259.268 212.394 260.164 212.081V217.612C259.393 217.966 258.393 218.279 257.164 218.55C255.935 218.841 254.654 218.987 253.32 218.987Z" fill="white"/>
<g filter="url(#filter0_d_755_141)">
<path d="M360 44.074L180 99.0309L2 156.192V292H360V44.074Z" fill="#588157"/>
</g>
<g filter="url(#filter1_i_755_141)">
<path d="M0 0.0870361L181.006 64.1296L360 130.74V289.001H0V0.0870361Z" fill="#588157"/>
</g>
<g filter="url(#filter2_i_755_141)">
<path d="M0 58.0698L180 126.195L360 193.819V292H0V58.0698Z" fill="#588157"/>
</g>
<path d="M27.8372 37.03L27.8297 36.819C28.1553 36.4884 28.5172 36.1439 28.9153 35.7853C29.3189 35.429 29.738 35.0726 30.1728 34.716C30.6076 34.3595 31.0296 34.0294 31.4389 33.7258L32.8681 34.2943C32.5176 34.6591 32.1526 35.0465 31.7732 35.4565C31.3937 35.8666 31.0282 36.2727 30.6765 36.6749C30.3249 37.0771 30.01 37.4466 29.7319 37.7835L27.8372 37.03ZM24.5215 35.7112L24.5303 35.5067C24.8505 35.174 25.2097 34.8284 25.6078 34.4699C26.0059 34.1113 26.4196 33.7527 26.8489 33.3941C27.2837 33.0375 27.7057 32.7075 28.115 32.4038L29.5524 32.9755C29.2909 33.2497 29.0179 33.5382 28.7334 33.841C28.4564 34.1406 28.1812 34.4439 27.9076 34.7511C27.6341 35.0583 27.369 35.3594 27.1123 35.6544C26.8577 35.9439 26.6256 36.214 26.4162 36.4648L24.5215 35.7112ZM27.6903 46.0572L34.5995 34.9829L37.8826 36.2886C38.6339 36.5874 39.2478 36.9388 39.7243 37.3425C40.2008 37.7463 40.514 38.205 40.664 38.7185C40.8195 39.2341 40.7812 39.8114 40.5492 40.4502C40.3513 40.9955 40.0664 41.4368 39.6946 41.7743C39.3303 42.1084 38.8994 42.3341 38.402 42.4514C37.912 42.5654 37.372 42.5681 36.7821 42.4595L36.7551 42.5339C37.251 42.9013 37.5975 43.3542 37.7945 43.8927C37.9935 44.4257 37.977 45.0116 37.7451 45.6505C37.4291 46.5207 36.9629 47.1609 36.3466 47.5713C35.7377 47.9784 35.0311 48.1826 34.2268 48.1842C33.4299 48.1824 32.585 48.0039 31.6921 47.6488L27.6903 46.0572ZM30.5718 45.3029L32.4012 46.0305C32.9239 46.2384 33.4058 46.3355 33.8469 46.3219C34.2934 46.3104 34.6792 46.1833 35.004 45.9406C35.3344 45.7001 35.5855 45.3431 35.7575 44.8694C35.9395 44.3682 35.9303 43.9045 35.73 43.4781C35.5351 43.054 35.1001 42.7076 34.4249 42.4391L32.7752 41.783L30.5718 45.3029ZM33.6808 40.3185L35.3142 40.9681C35.777 41.1522 36.2121 41.2496 36.6194 41.2603C37.0342 41.2677 37.396 41.1721 37.7049 40.9735C38.0212 40.7716 38.2594 40.4503 38.4194 40.0097C38.5874 39.547 38.5683 39.1361 38.3623 38.7768C38.1618 38.4197 37.743 38.1145 37.106 37.8611L35.5951 37.2602L33.6808 40.3185ZM41.4731 51.728C40.7817 51.453 40.2253 51.0805 39.8041 50.6104C39.3903 50.137 39.1358 49.5851 39.0407 48.9548C38.953 48.3212 39.0461 47.6271 39.3201 46.8725C39.5921 46.1235 39.9632 45.436 40.4336 44.81C40.9059 44.1784 41.4529 43.6586 42.0747 43.2503C42.6964 42.8421 43.3651 42.5881 44.0805 42.4881C44.7959 42.3882 45.5321 42.4887 46.2889 42.7897C47.2144 43.1579 47.8316 43.646 48.1404 44.2541C48.4567 44.8589 48.4888 45.5083 48.2368 46.2023C48.0648 46.6759 47.8017 47.066 47.4474 47.3726C47.093 47.6792 46.6461 47.8891 46.1065 48.0022C45.5744 48.112 44.9483 48.112 44.228 48.002C43.5132 47.8942 42.7094 47.6627 41.8165 47.3076L41.449 47.1614C41.4135 47.2419 41.3771 47.3251 41.3396 47.411C41.3042 47.4915 41.2715 47.573 41.2415 47.6556C41.0195 48.2669 41.0024 48.8117 41.1902 49.2897C41.38 49.7623 41.7771 50.1188 42.3814 50.3591C42.8388 50.541 43.2817 50.651 43.7103 50.6891C44.1388 50.7272 44.6347 50.7259 45.1978 50.6851L44.6428 52.2134C44.1238 52.2528 43.6164 52.2432 43.1205 52.1847C42.6266 52.1206 42.0775 51.9684 41.4731 51.728ZM42.1958 45.8512L42.4734 45.9616C43.1377 46.2258 43.7378 46.392 44.2738 46.4602C44.8118 46.5229 45.2602 46.4807 45.619 46.3334C45.9798 46.1807 46.2271 45.9198 46.3611 45.5508C46.4651 45.2644 46.4563 45.0056 46.3346 44.7744C46.2204 44.5399 45.989 44.3534 45.6406 44.2148C45.2976 44.0784 44.921 44.0515 44.5109 44.1342C44.1028 44.2114 43.6961 44.3963 43.2907 44.6889C42.8874 44.976 42.5224 45.3634 42.1958 45.8512ZM49.2888 54.8365C48.63 54.5745 48.1477 54.2125 47.8419 53.7505C47.5436 53.2852 47.5314 52.6753 47.8053 51.9207C47.8593 51.772 47.9265 51.6128 48.0068 51.443C48.0946 51.27 48.1925 51.0946 48.3007 50.917L51.0249 46.5548L49.7182 46.0351L50.2338 45.1813L52.0083 45.159L53.7393 43.6352L54.9398 44.1126L53.7802 45.9677L56.0832 46.8837L55.2389 48.2308L52.9441 47.3181L50.2087 51.6853C50.1395 51.7902 50.07 51.9043 50.0002 52.0279C49.9379 52.148 49.8877 52.2604 49.8497 52.3651C49.7597 52.6129 49.7578 52.8328 49.8439 53.0246C49.93 53.2164 50.1119 53.3675 50.3896 53.478C50.6019 53.5624 50.8141 53.6216 51.0261 53.6555C51.2381 53.6894 51.4762 53.7116 51.7403 53.7221L51.2093 55.1843C50.9739 55.1978 50.6825 55.1765 50.3353 55.1204C49.9861 55.0697 49.6372 54.9751 49.2888 54.8365ZM55.4793 57.2986C54.8205 57.0366 54.3382 56.6746 54.0324 56.2126C53.734 55.7473 53.7218 55.1373 53.9958 54.3828C54.0498 54.2341 54.117 54.0749 54.1973 53.9051C54.2851 53.732 54.383 53.5567 54.4911 53.3791L57.2153 49.0169L55.9086 48.4972L56.4243 47.6433L58.1988 47.6211L59.9297 46.0972L61.1303 46.5747L59.9707 48.4298L62.2737 49.3458L61.4294 50.6929L59.1345 49.7802L56.3992 54.1474C56.3299 54.2522 56.2604 54.3664 56.1907 54.4899C56.1283 54.6101 56.0782 54.7225 56.0402 54.8272C55.9502 55.075 55.9482 55.2948 56.0344 55.4867C56.1205 55.6785 56.3024 55.8296 56.58 55.9401C56.7924 56.0245 57.0046 56.0837 57.2166 56.1176C57.4286 56.1515 57.6666 56.1737 57.9307 56.1842L57.3998 57.6464C57.1643 57.6599 56.873 57.6386 56.5258 57.5824C56.1765 57.5318 55.8277 57.4372 55.4793 57.2986ZM62.6906 60.1667C61.9991 59.8917 61.4428 59.5191 61.0215 59.0491C60.6077 58.5756 60.3533 58.0238 60.2581 57.3935C60.1704 56.7598 60.2636 56.0657 60.5376 55.3112C60.8095 54.5622 61.1807 53.8746 61.651 53.2486C62.1233 52.6171 62.6704 52.0972 63.2921 51.689C63.9139 51.2808 64.5825 51.0267 65.2979 50.9268C66.0134 50.8269 66.7495 50.9274 67.5063 51.2284C68.4319 51.5965 69.0491 52.0846 69.3579 52.6928C69.6741 53.2976 69.7062 53.947 69.4543 54.6409C69.2823 55.1146 69.0191 55.5047 68.6648 55.8113C68.3105 56.1178 67.8635 56.3277 67.324 56.4409C66.7919 56.5507 66.1657 56.5506 65.4455 56.4406C64.7307 56.3328 63.9268 56.1014 63.0339 55.7462L62.6664 55.6001C62.631 55.6805 62.5945 55.7637 62.5571 55.8497C62.5216 55.9301 62.4889 56.0117 62.4589 56.0943C62.237 56.7056 62.2199 57.2503 62.4077 57.7284C62.5974 58.201 62.9945 58.5574 63.5989 58.7978C64.0562 58.9797 64.4992 59.0897 64.9277 59.1278C65.3563 59.1658 65.8521 59.1645 66.4152 59.1237L65.8603 60.6521C65.3413 60.6915 64.8338 60.6819 64.3379 60.6233C63.844 60.5593 63.2949 60.407 62.6906 60.1667ZM63.4132 54.2898L63.6909 54.4003C64.3551 54.6645 64.9552 54.8307 65.4912 54.8989C66.0293 54.9616 66.4776 54.9193 66.8364 54.7721C67.1972 54.6193 67.4446 54.3585 67.5786 53.9894C67.6826 53.7031 67.6737 53.4443 67.552 53.2131C67.4378 52.9786 67.2065 52.792 66.858 52.6534C66.515 52.517 66.1384 52.4902 65.7283 52.5729C65.3202 52.65 64.9135 52.8349 64.5082 53.1275C64.1049 53.4146 63.7399 53.8021 63.4132 54.2898ZM67.7732 61.9991L73.0131 53.6171L74.5076 54.2115L73.6847 55.8602L73.7745 55.8959C74.1366 55.6365 74.5058 55.4178 74.882 55.2397C75.2637 55.0637 75.6543 54.9575 76.0538 54.921C76.4534 54.8845 76.8601 54.9486 77.2738 55.1132C77.4208 55.1716 77.5693 55.2433 77.7192 55.3281C77.8765 55.4096 78.0091 55.4907 78.1169 55.5714L77.0404 57.2232C76.9326 57.1425 76.812 57.063 76.6784 56.9847C76.5448 56.9063 76.3991 56.8358 76.2412 56.773C75.8819 56.6301 75.5133 56.5812 75.1355 56.6263C74.7578 56.6714 74.3859 56.7946 74.02 56.9957C73.6542 57.1969 73.3047 57.4644 72.9716 57.7983C72.6405 58.1268 72.3372 58.5072 72.0618 58.9397L69.6842 62.7591L67.7732 61.9991ZM83.467 68.4299C82.6503 68.1051 82.0133 67.6973 81.5559 67.2066C81.0986 66.7159 80.8221 66.1647 80.7264 65.5531C80.6327 64.9359 80.7128 64.2776 80.9668 63.5782C81.0328 63.3964 81.1217 63.186 81.2335 62.9468C81.3507 62.7098 81.4815 62.4782 81.626 62.252L85.9199 55.3941L87.8555 56.164L83.5555 63.0383C83.4245 63.2446 83.3017 63.4542 83.187 63.667C83.0778 63.882 82.9942 64.0694 82.9362 64.2291C82.7302 64.7964 82.7336 65.3019 82.9462 65.7458C83.1644 66.1918 83.6001 66.5447 84.2535 66.8046C84.8306 67.0341 85.3477 67.12 85.8048 67.0623C86.2639 66.9991 86.6875 66.802 87.0756 66.4711C87.4692 66.1423 87.8453 65.6899 88.2039 65.114L92.6167 58.0576L94.5523 58.8274L90.0408 66.0526C89.5377 66.8547 88.9685 67.5044 88.333 68.0017C87.6976 68.499 86.979 68.7962 86.1774 68.8934C85.3777 68.985 84.4742 68.8305 83.467 68.4299ZM90.3626 70.9834L95.6197 62.5799L97.1633 63.1938L96.3403 64.8425L96.3893 64.862C96.7251 64.6236 97.0893 64.4187 97.4818 64.247C97.8764 64.0699 98.289 63.963 98.7198 63.9263C99.156 63.8918 99.6028 63.9655 100.06 64.1474C100.561 64.3466 100.95 64.6147 101.226 64.9515C101.503 65.2884 101.664 65.6771 101.709 66.1175C101.755 66.558 101.685 67.0343 101.499 67.5465C101.417 67.7723 101.31 68.0071 101.178 68.2508C101.053 68.4911 100.92 68.7217 100.777 68.9423L97.6801 73.8937L95.7283 73.1174L98.9068 68.0188C99.0338 67.8235 99.1392 67.6448 99.2229 67.4827C99.3121 67.3228 99.3837 67.1685 99.4377 67.0198C99.5697 66.6563 99.5789 66.348 99.4652 66.0948C99.357 65.8437 99.1286 65.6489 98.7802 65.5103C98.3991 65.3587 97.9694 65.358 97.4912 65.5082C97.013 65.6584 96.5211 65.9575 96.0157 66.4057C95.5103 66.8539 95.0244 67.4454 94.5582 68.1802L92.3227 71.763L90.3626 70.9834ZM103.108 76.2417C102.64 76.0555 102.256 75.7737 101.957 75.3963C101.664 75.0211 101.491 74.5522 101.44 73.9898C101.391 73.4219 101.502 72.7634 101.774 72.0144C102.002 71.3865 102.288 70.7973 102.631 70.2468C102.981 69.6929 103.375 69.2004 103.812 68.7691C104.251 68.3323 104.721 67.9833 105.22 67.722C105.722 67.4552 106.238 67.2976 106.766 67.2494C107.302 67.1978 107.834 67.277 108.362 67.4871C108.754 67.643 109.064 67.845 109.292 68.0931C109.519 68.3413 109.687 68.6161 109.796 68.9177C109.904 69.2193 109.976 69.5283 110.011 69.8446L110.084 69.8738C110.153 69.7371 110.238 69.563 110.339 69.3513C110.449 69.1364 110.569 68.907 110.701 68.6633C110.835 68.4141 110.975 68.1764 111.119 67.9502L112.834 65.2098L114.737 65.9666L107.374 77.7493L105.88 77.1549L106.596 75.7475L106.539 75.7248C106.188 75.938 105.825 76.1121 105.452 76.2474C105.084 76.3848 104.705 76.4607 104.313 76.4752C103.924 76.4841 103.522 76.4063 103.108 76.2417ZM104.424 74.9594C104.68 75.0612 104.949 75.0925 105.231 75.0534C105.519 75.0165 105.805 74.9225 106.091 74.7713C106.384 74.6168 106.67 74.4216 106.948 74.1858C107.229 73.9445 107.492 73.6742 107.738 73.3749C107.984 73.0755 108.205 72.7599 108.4 72.4279C108.595 72.0958 108.754 71.7619 108.876 71.4259C109.062 70.9137 109.087 70.4574 108.952 70.0571C108.825 69.6534 108.521 69.3562 108.042 69.1657C107.732 69.0422 107.411 69.0156 107.081 69.0857C106.75 69.1559 106.42 69.2991 106.093 69.5154C105.765 69.7317 105.45 70.0067 105.148 70.3405C104.854 70.6709 104.585 71.0429 104.341 71.4565C104.097 71.8701 103.895 72.3 103.733 72.7461C103.531 73.3024 103.487 73.767 103.6 74.14C103.72 74.5152 103.994 74.7883 104.424 74.9594ZM113.831 80.5065C113.14 80.2315 112.583 79.859 112.162 79.3889C111.748 78.9155 111.494 78.3636 111.399 77.7333C111.311 77.0996 111.404 76.4055 111.678 75.651C111.95 74.902 112.321 74.2145 112.792 73.5884C113.264 72.9569 113.811 72.437 114.433 72.0288C115.055 71.6206 115.723 71.3665 116.439 71.2666C117.154 71.1667 117.89 71.2672 118.647 71.5682C119.573 71.9363 120.19 72.4245 120.499 73.0326C120.815 73.6374 120.847 74.2868 120.595 74.9807C120.423 75.4544 120.16 75.8445 119.806 76.1511C119.451 76.4577 119.004 76.6675 118.465 76.7807C117.933 76.8905 117.306 76.8904 116.586 76.7805C115.871 76.6727 115.068 76.4412 114.175 76.0861L113.807 75.9399C113.772 76.0203 113.735 76.1035 113.698 76.1895C113.662 76.2699 113.63 76.3515 113.6 76.4341C113.378 77.0454 113.361 77.5901 113.548 78.0682C113.738 78.5408 114.135 78.8972 114.74 79.1376C115.197 79.3195 115.64 79.4295 116.068 79.4676C116.497 79.5057 116.993 79.5043 117.556 79.4636L117.001 80.9919C116.482 81.0313 115.975 81.0217 115.479 80.9632C114.985 80.8991 114.436 80.7469 113.831 80.5065ZM114.554 74.6297L114.832 74.7401C115.496 75.0043 116.096 75.1705 116.632 75.2387C117.17 75.3014 117.618 75.2591 117.977 75.1119C118.338 74.9592 118.585 74.6983 118.719 74.3293C118.823 74.0429 118.814 73.7841 118.693 73.5529C118.579 73.3184 118.347 73.1318 117.999 72.9933C117.656 72.8568 117.279 72.83 116.869 72.9127C116.461 72.9899 116.054 73.1748 115.649 73.4674C115.246 73.7545 114.881 74.1419 114.554 74.6297ZM118.914 82.3389L124.154 73.9569L125.648 74.5513L124.825 76.2L124.915 76.2357C125.277 75.9764 125.647 75.7576 126.023 75.5795C126.404 75.4035 126.795 75.2973 127.195 75.2608C127.594 75.2244 128.001 75.2884 128.415 75.453C128.562 75.5115 128.71 75.5831 128.86 75.6679C129.017 75.7494 129.15 75.8305 129.258 75.9112L128.181 77.563C128.073 77.4823 127.953 77.4028 127.819 77.3245C127.686 77.2462 127.54 77.1756 127.382 77.1128C127.023 76.9699 126.654 76.921 126.276 76.9661C125.899 77.0113 125.527 77.1344 125.161 77.3356C124.795 77.5367 124.445 77.8042 124.112 78.1382C123.781 78.4666 123.478 78.8471 123.203 79.2796L120.825 83.099L118.914 82.3389ZM128.058 86.1648C127.492 85.9396 127.014 85.6929 126.626 85.4249C126.24 85.1645 125.912 84.8763 125.64 84.5603L126.243 82.8998C126.516 83.2477 126.844 83.5798 127.227 83.8963C127.618 84.2094 128.045 84.4579 128.508 84.642C128.867 84.7849 129.198 84.8599 129.501 84.8668C129.804 84.8738 130.062 84.8156 130.275 84.6924C130.495 84.5657 130.654 84.3702 130.75 84.1059C130.82 83.9131 130.838 83.7251 130.805 83.5417C130.772 83.3584 130.677 83.1474 130.521 82.9087C130.364 82.67 130.137 82.3686 129.84 82.0044C129.524 81.6205 129.27 81.2577 129.076 80.9159C128.89 80.5708 128.775 80.2259 128.732 79.881C128.694 79.5383 128.746 79.1742 128.886 78.7887C129.096 78.2104 129.405 77.7694 129.815 77.4658C130.231 77.1588 130.721 76.9943 131.284 76.9723C131.854 76.9468 132.471 77.0662 133.135 77.3304C133.669 77.5426 134.149 77.8063 134.577 78.1213C135.007 78.4309 135.383 78.7759 135.706 79.1565L134.555 80.3438C134.318 80.054 134.038 79.776 133.718 79.5097C133.399 79.238 133.03 79.0187 132.611 78.852C132.224 78.6982 131.867 78.6603 131.54 78.7381C131.218 78.818 130.996 79.026 130.874 79.362C130.81 79.5382 130.793 79.7142 130.822 79.8898C130.86 80.0622 130.953 80.26 131.102 80.4833C131.252 80.7066 131.467 80.9812 131.747 81.3071C132.047 81.6658 132.302 82.0192 132.512 82.3675C132.722 82.7157 132.856 83.0749 132.915 83.4449C132.976 83.8095 132.929 84.2038 132.775 84.6279C132.541 85.2722 132.193 85.7579 131.732 86.0849C131.278 86.4086 130.737 86.5778 130.108 86.5926C129.482 86.6019 128.798 86.4593 128.058 86.1648ZM136.037 89.3382C135.378 89.0762 134.896 88.7142 134.59 88.2522C134.292 87.7869 134.28 87.1769 134.553 86.4224C134.607 86.2737 134.675 86.1145 134.755 85.9447C134.843 85.7717 134.941 85.5963 135.049 85.4187L137.773 81.0565L136.466 80.5368L136.982 79.683L138.756 79.6607L140.487 78.1369L141.688 78.6143L140.528 80.4694L142.831 81.3854L141.987 82.7325L139.692 81.8198L136.957 86.187C136.888 86.2919 136.818 86.406 136.748 86.5296C136.686 86.6497 136.636 86.7621 136.598 86.8668C136.508 87.1146 136.506 87.3345 136.592 87.5263C136.678 87.7181 136.86 87.8692 137.138 87.9797C137.35 88.0641 137.562 88.1233 137.774 88.1572C137.986 88.1911 138.224 88.2133 138.488 88.2238L137.957 89.686C137.722 89.6995 137.431 89.6782 137.083 89.6221C136.734 89.5714 136.385 89.4768 136.037 89.3382ZM142.317 91.836C141.854 91.6519 141.473 91.3712 141.174 90.9938C140.883 90.6131 140.711 90.1415 140.66 89.5791C140.611 89.0112 140.72 88.3582 140.988 87.6202C141.22 86.9813 141.511 86.3849 141.862 85.8311C142.218 85.2794 142.615 84.7879 143.052 84.3566C143.494 83.9275 143.965 83.5823 144.465 83.321C144.967 83.0542 145.482 82.8967 146.011 82.8484C146.541 82.7947 147.065 82.8706 147.582 83.0764C147.974 83.2323 148.292 83.4375 148.536 83.6922C148.782 83.9413 148.965 84.2188 149.084 84.5247C149.204 84.8307 149.276 85.1462 149.301 85.4714L149.375 85.5006L150.345 84.3737L151.815 84.9584L146.575 93.3403L145.113 92.7589L145.83 91.3516L145.764 91.3256C145.42 91.5354 145.059 91.7068 144.68 91.8399C144.307 91.9752 143.922 92.0489 143.525 92.0612C143.128 92.0735 142.726 91.9984 142.317 91.836ZM143.593 90.5374C143.974 90.689 144.39 90.6909 144.843 90.5431C145.297 90.3898 145.745 90.1266 146.186 89.7536C146.632 89.3827 147.024 88.9368 147.363 88.416C147.528 88.1666 147.667 87.9223 147.779 87.6832C147.896 87.4461 147.999 87.2037 148.089 86.9559C148.263 86.4767 148.28 86.0359 148.14 85.6334C147.999 85.2308 147.711 84.943 147.276 84.7697C146.976 84.6506 146.659 84.6223 146.325 84.6848C145.996 84.7494 145.668 84.8899 145.34 85.1062C145.015 85.3169 144.699 85.5854 144.394 85.9115C144.094 86.2397 143.818 86.6123 143.567 87.0293C143.324 87.4429 143.118 87.881 142.95 88.3437C142.748 88.8999 142.704 89.3646 142.818 89.7376C142.937 90.1127 143.195 90.3794 143.593 90.5374ZM149.164 94.37L154.421 85.9665L155.964 86.5804L155.142 88.229L155.191 88.2485C155.526 88.0102 155.89 87.8052 156.283 87.6336C156.678 87.4565 157.09 87.3496 157.521 87.3129C157.957 87.2784 158.404 87.3521 158.861 87.534C159.362 87.7332 159.751 88.0013 160.027 88.3381C160.304 88.675 160.465 89.0636 160.511 89.5041C160.556 89.9446 160.486 90.4209 160.3 90.9331C160.218 91.1589 160.111 91.3937 159.979 91.6374C159.854 91.8777 159.721 92.1082 159.578 92.3289L156.481 97.2803L154.529 96.504L157.708 91.4054C157.835 91.2101 157.94 91.0314 158.024 90.8693C158.113 90.7094 158.185 90.5551 158.239 90.4064C158.371 90.0429 158.38 89.7346 158.266 89.4813C158.158 89.2303 157.93 89.0355 157.581 88.8969C157.2 88.7453 156.771 88.7446 156.292 88.8948C155.814 89.0449 155.322 89.3441 154.817 89.7923C154.311 90.2405 153.826 90.8319 153.359 91.5668L151.124 95.1495L149.164 94.37ZM161.909 99.6283C161.441 99.4421 161.058 99.1603 160.758 98.7829C160.465 98.4076 160.292 97.9388 160.241 97.3764C160.192 96.8084 160.303 96.15 160.575 95.4009C160.803 94.7731 161.089 94.1839 161.432 93.6334C161.783 93.0795 162.176 92.5869 162.613 92.1557C163.052 91.7189 163.522 91.3698 164.022 91.1085C164.524 90.8417 165.039 90.6842 165.567 90.636C166.103 90.5844 166.635 90.6636 167.163 90.8737C167.555 91.0296 167.865 91.2316 168.093 91.4797C168.32 91.7278 168.489 92.0027 168.597 92.3043C168.706 92.6059 168.777 92.9149 168.812 93.2312L168.885 93.2604C168.954 93.1237 169.039 92.9496 169.141 92.7379C169.25 92.5229 169.371 92.2936 169.503 92.0499C169.637 91.8007 169.776 91.563 169.92 91.3368L171.635 88.5963L173.538 89.3531L166.175 101.136L164.681 100.541L165.397 99.1341L165.34 99.1114C164.989 99.3245 164.626 99.4987 164.253 99.634C163.886 99.7714 163.506 99.8473 163.114 99.8617C162.725 99.8707 162.323 99.7929 161.909 99.6283ZM163.226 98.346C163.482 98.4477 163.751 98.4791 164.033 98.44C164.32 98.4031 164.607 98.3091 164.892 98.1579C165.185 98.0033 165.471 97.8082 165.75 97.5724C166.03 97.3311 166.294 97.0608 166.539 96.7614C166.785 96.4621 167.006 96.1464 167.201 95.8144C167.396 95.4824 167.555 95.1484 167.677 94.8125C167.863 94.3003 167.888 93.844 167.753 93.4436C167.626 93.0399 167.323 92.7428 166.843 92.5523C166.533 92.4288 166.213 92.4022 165.882 92.4723C165.551 92.5425 165.222 92.6857 164.894 92.902C164.566 93.1183 164.251 93.3933 163.949 93.727C163.655 94.0574 163.386 94.4294 163.142 94.8431C162.899 95.2567 162.696 95.6866 162.534 96.1327C162.332 96.6889 162.288 97.1536 162.402 97.5266C162.521 97.9018 162.795 98.1749 163.226 98.346ZM168.879 102.211L174.119 93.829L176.03 94.5891L170.79 102.971L168.879 102.211ZM175.997 93.0066C175.714 92.894 175.502 92.7309 175.361 92.5175C175.223 92.2985 175.208 92.0375 175.318 91.7346C175.41 91.4813 175.537 91.2794 175.697 91.1289C175.863 90.9807 176.054 90.8927 176.27 90.865C176.493 90.834 176.732 90.8694 176.988 90.9711C177.271 91.0837 177.478 91.2446 177.607 91.4538C177.739 91.6574 177.751 91.9079 177.643 92.2053C177.503 92.5909 177.285 92.8571 176.988 93.0039C176.692 93.1508 176.361 93.1517 175.997 93.0066ZM173.452 104.03L178.709 95.6264L180.253 96.2403L179.43 97.889L179.479 97.9085C179.814 97.6702 180.179 97.4652 180.571 97.2936C180.966 97.1164 181.378 97.0095 181.809 96.9729C182.245 96.9384 182.692 97.0121 183.15 97.194C183.65 97.3932 184.039 97.6612 184.316 97.9981C184.592 98.3349 184.753 98.7236 184.799 99.1641C184.844 99.6045 184.774 100.081 184.588 100.593C184.506 100.819 184.399 101.054 184.267 101.297C184.143 101.538 184.009 101.768 183.867 101.989L180.77 106.94L178.818 106.164L181.996 101.065C182.123 100.87 182.229 100.691 182.312 100.529C182.402 100.369 182.473 100.215 182.527 100.066C182.659 99.7029 182.668 99.3945 182.555 99.1413C182.446 98.8903 182.218 98.6954 181.87 98.5569C181.488 98.4053 181.059 98.4046 180.581 98.5547C180.102 98.7049 179.611 99.0041 179.105 99.4522C178.6 99.9004 178.114 100.492 177.648 101.227L175.412 104.809L173.452 104.03ZM184.128 112.928C183.034 112.492 182.254 111.946 181.789 111.288C181.327 110.638 181.229 109.947 181.495 109.214C181.703 108.642 182.077 108.223 182.615 107.958C183.148 107.691 183.882 107.583 184.817 107.633C184.652 107.435 184.55 107.227 184.511 107.01C184.471 106.793 184.494 106.568 184.578 106.337C184.716 105.957 184.962 105.68 185.318 105.507C185.682 105.33 186.17 105.221 186.782 105.181C186.51 104.815 186.342 104.42 186.278 103.997C186.215 103.569 186.27 103.118 186.442 102.644C186.643 102.107 186.908 101.651 187.237 101.278C187.571 100.906 187.956 100.628 188.391 100.442C188.821 100.253 189.29 100.162 189.799 100.169C190.307 100.176 190.833 100.288 191.378 100.504C191.596 100.591 191.807 100.694 192.013 100.814C192.221 100.928 192.42 101.058 192.61 101.203L195.73 102.443L195.094 103.448L193.398 103.076C193.429 103.265 193.427 103.466 193.394 103.679C193.365 103.895 193.309 104.118 193.225 104.349C193.033 104.878 192.772 105.323 192.442 105.683C192.119 106.04 191.745 106.307 191.319 106.484C190.906 106.661 190.45 106.741 189.951 106.725C189.459 106.706 188.94 106.591 188.394 106.38C188.241 106.319 188.105 106.259 187.983 106.198C187.864 106.131 187.76 106.068 187.67 106.007C187.321 105.988 187.043 106.025 186.834 106.119C186.628 106.207 186.493 106.339 186.429 106.515C186.377 106.659 186.378 106.792 186.433 106.914C186.487 107.024 186.579 107.13 186.71 107.233C186.843 107.33 187.014 107.435 187.222 107.549L188.219 108.097C188.812 108.421 189.271 108.752 189.597 109.09C189.928 109.43 190.131 109.79 190.204 110.173C190.284 110.551 190.243 110.966 190.079 111.418C189.863 112.013 189.55 112.481 189.139 112.822C188.734 113.165 188.243 113.385 187.665 113.483C187.18 113.568 186.639 113.564 186.043 113.472C185.447 113.38 184.809 113.198 184.128 112.928ZM184.715 111.62C185.189 111.809 185.621 111.933 186.01 111.993C186.405 112.056 186.751 112.055 187.048 111.99C187.331 111.932 187.57 111.823 187.766 111.661C187.962 111.499 188.109 111.284 188.207 111.014C188.251 110.893 188.271 110.778 188.267 110.669C188.266 110.568 188.243 110.467 188.198 110.368C188.116 110.183 187.973 110.01 187.77 109.848C187.568 109.685 187.302 109.516 186.973 109.341L185.812 108.728C185.365 108.639 184.968 108.616 184.621 108.661C184.28 108.708 183.995 108.816 183.766 108.983C183.541 109.158 183.376 109.389 183.272 109.675C183.132 110.061 183.183 110.418 183.425 110.748C183.664 111.082 184.095 111.373 184.715 111.62ZM188.88 105.146C189.25 105.293 189.607 105.312 189.952 105.203C190.299 105.089 190.609 104.878 190.883 104.571C191.164 104.261 191.386 103.88 191.55 103.428C191.626 103.219 191.665 103.026 191.666 102.85C191.673 102.677 191.643 102.52 191.576 102.379C191.519 102.243 191.429 102.122 191.305 102.017C191.187 101.913 191.038 101.825 190.859 101.754C190.581 101.643 190.308 101.607 190.038 101.645C189.777 101.68 189.527 101.776 189.289 101.933C189.058 102.087 188.847 102.293 188.654 102.55C188.466 102.81 188.311 103.107 188.189 103.443C188.129 103.609 188.091 103.764 188.076 103.909C188.066 104.056 188.079 104.194 188.114 104.321C188.189 104.697 188.444 104.972 188.88 105.146ZM197.933 109.531L198.89 108.002L202.998 109.636L202.041 111.165L197.933 109.531ZM211.319 119.28C210.355 118.896 209.613 118.384 209.092 117.742C208.579 117.096 208.28 116.357 208.197 115.523C208.119 114.691 208.249 113.807 208.589 112.871C208.829 112.21 209.122 111.586 209.466 110.998C209.818 110.407 210.213 109.867 210.652 109.38C211.09 108.893 211.57 108.472 212.091 108.118C212.617 107.767 213.174 107.503 213.762 107.327C214.351 107.145 214.965 107.068 215.603 107.095C216.247 107.124 216.906 107.273 217.581 107.541C218.975 108.096 219.891 108.936 220.33 110.062C220.774 111.19 220.737 112.468 220.219 113.894C219.979 114.555 219.687 115.186 219.344 115.787C219.009 116.385 218.624 116.931 218.188 117.426C217.761 117.918 217.292 118.343 216.782 118.701C216.273 119.053 215.728 119.319 215.147 119.497C214.57 119.678 213.959 119.756 213.313 119.732C212.675 119.705 212.01 119.555 211.319 119.28ZM212.048 117.631C212.446 117.789 212.845 117.866 213.245 117.862C213.645 117.857 214.037 117.783 214.419 117.639C214.809 117.491 215.186 117.278 215.548 117C215.917 116.724 216.262 116.392 216.583 116.003C216.911 115.617 217.212 115.182 217.487 114.699C217.764 114.21 218.006 113.682 218.212 113.115C218.546 112.195 218.594 111.385 218.355 110.686C218.123 109.988 217.612 109.482 216.822 109.168C216.414 109.006 216.003 108.927 215.59 108.933C215.184 108.936 214.781 109.015 214.382 109.171C213.984 109.322 213.6 109.538 213.23 109.82C212.868 110.098 212.523 110.43 212.195 110.817C211.868 111.203 211.568 111.635 211.295 112.113C211.029 112.587 210.796 113.1 210.596 113.65C210.368 114.278 210.271 114.854 210.305 115.378C210.345 115.905 210.51 116.358 210.802 116.739C211.099 117.122 211.515 117.419 212.048 117.631ZM216.047 125.613L223.61 113.513L225.104 114.107L224.351 115.614L224.417 115.64C224.75 115.425 225.103 115.241 225.477 115.087C225.851 114.934 226.239 114.842 226.642 114.813C227.051 114.787 227.462 114.856 227.875 115.02C228.338 115.204 228.716 115.487 229.007 115.867C229.306 116.245 229.481 116.718 229.53 117.285C229.586 117.85 229.479 118.507 229.207 119.256C228.979 119.884 228.69 120.475 228.339 121.028C227.996 121.579 227.606 122.07 227.169 122.501C226.732 122.932 226.262 123.281 225.76 123.548C225.266 123.812 224.753 123.97 224.223 124.024C223.694 124.072 223.163 123.99 222.63 123.778C222.238 123.622 221.924 123.422 221.689 123.177C221.462 122.929 221.293 122.654 221.185 122.353C221.076 122.051 221.006 121.739 220.973 121.417L220.899 121.388C220.754 121.702 220.593 122.026 220.416 122.359C220.239 122.692 220.057 123.004 219.871 123.295L217.95 126.37L216.047 125.613ZM222.95 122.1C223.26 122.223 223.58 122.252 223.908 122.188C224.239 122.118 224.568 121.974 224.896 121.758C225.224 121.542 225.536 121.266 225.833 120.93C226.129 120.594 226.398 120.222 226.64 119.814C226.883 119.4 227.087 118.968 227.251 118.516C227.455 117.954 227.499 117.489 227.383 117.122C227.275 116.751 227.006 116.48 226.576 116.309C226.314 116.205 226.039 116.174 225.749 116.217C225.462 116.254 225.173 116.347 224.882 116.496C224.591 116.645 224.305 116.84 224.024 117.081C223.745 117.317 223.483 117.585 223.237 117.884C222.992 118.183 222.771 118.499 222.576 118.831C222.386 119.165 222.23 119.5 222.108 119.836C221.924 120.343 221.898 120.799 222.031 121.205C222.17 121.613 222.476 121.911 222.95 122.1ZM231.94 127.481C231.249 127.206 230.692 126.833 230.271 126.363C229.857 125.89 229.603 125.338 229.508 124.708C229.42 124.074 229.513 123.38 229.787 122.626C230.059 121.877 230.43 121.189 230.901 120.563C231.373 119.931 231.92 119.412 232.542 119.003C233.163 118.595 233.832 118.341 234.547 118.241C235.263 118.141 235.999 118.242 236.756 118.543C237.681 118.911 238.299 119.399 238.607 120.007C238.924 120.612 238.956 121.261 238.704 121.955C238.532 122.429 238.269 122.819 237.914 123.126C237.56 123.432 237.113 123.642 236.574 123.755C236.041 123.865 235.415 123.865 234.695 123.755C233.98 123.647 233.176 123.416 232.283 123.061L231.916 122.914C231.881 122.995 231.844 123.078 231.807 123.164C231.771 123.244 231.738 123.326 231.708 123.409C231.486 124.02 231.469 124.565 231.657 125.043C231.847 125.515 232.244 125.872 232.848 126.112C233.306 126.294 233.749 126.404 234.177 126.442C234.606 126.48 235.102 126.479 235.665 126.438L235.11 127.966C234.591 128.006 234.083 127.996 233.587 127.938C233.094 127.874 232.544 127.721 231.94 127.481ZM232.663 121.604L232.94 121.715C233.605 121.979 234.205 122.145 234.741 122.213C235.279 122.276 235.727 122.234 236.086 122.086C236.447 121.934 236.694 121.673 236.828 121.304C236.932 121.017 236.923 120.759 236.802 120.527C236.687 120.293 236.456 120.106 236.108 119.968C235.765 119.831 235.388 119.805 234.978 119.887C234.57 119.964 234.163 120.149 233.758 120.442C233.354 120.729 232.989 121.116 232.663 121.604ZM236.99 129.3L242.247 120.897L243.791 121.511L242.968 123.16L243.017 123.179C243.352 122.941 243.717 122.736 244.109 122.564C244.504 122.387 244.916 122.28 245.347 122.243C245.783 122.209 246.23 122.283 246.688 122.464C247.188 122.664 247.577 122.932 247.854 123.269C248.13 123.605 248.291 123.994 248.337 124.435C248.382 124.875 248.312 125.351 248.126 125.864C248.044 126.089 247.937 126.324 247.805 126.568C247.681 126.808 247.547 127.039 247.405 127.259L244.308 132.211L242.356 131.434L245.534 126.336C245.661 126.141 245.767 125.962 245.85 125.8C245.94 125.64 246.011 125.486 246.065 125.337C246.197 124.973 246.206 124.665 246.093 124.412C245.984 124.161 245.756 123.966 245.408 123.827C245.026 123.676 244.597 123.675 244.119 123.825C243.64 123.975 243.149 124.275 242.643 124.723C242.138 125.171 241.652 125.762 241.186 126.497L238.95 130.08L236.99 129.3ZM246.905 133.244L252.145 124.862L254.056 125.622L248.816 134.004L246.905 133.244ZM254.023 124.039C253.74 123.927 253.528 123.764 253.387 123.55C253.249 123.331 253.234 123.07 253.344 122.767C253.436 122.514 253.563 122.312 253.723 122.162C253.889 122.013 254.08 121.925 254.296 121.898C254.519 121.867 254.758 121.902 255.014 122.004C255.297 122.116 255.504 122.277 255.633 122.486C255.765 122.69 255.777 122.941 255.669 123.238C255.529 123.624 255.311 123.89 255.014 124.037C254.718 124.183 254.387 124.184 254.023 124.039ZM251.478 135.063L256.735 126.659L258.279 127.273L257.456 128.922L257.505 128.941C257.84 128.703 258.205 128.498 258.597 128.326C258.992 128.149 259.404 128.042 259.835 128.006C260.271 127.971 260.718 128.045 261.176 128.227C261.676 128.426 262.065 128.694 262.342 129.031C262.618 129.368 262.779 129.756 262.825 130.197C262.87 130.637 262.8 131.114 262.614 131.626C262.532 131.852 262.425 132.086 262.293 132.33C262.169 132.57 262.035 132.801 261.893 133.022L258.796 137.973L256.844 137.197L260.022 132.098C260.149 131.903 260.255 131.724 260.338 131.562C260.428 131.402 260.499 131.248 260.553 131.099C260.685 130.736 260.694 130.427 260.581 130.174C260.472 129.923 260.244 129.728 259.896 129.59C259.514 129.438 259.085 129.437 258.607 129.587C258.128 129.738 257.637 130.037 257.131 130.485C256.626 130.933 256.14 131.525 255.674 132.259L253.438 135.842L251.478 135.063ZM262.154 143.96C261.06 143.525 260.28 142.979 259.815 142.321C259.353 141.671 259.255 140.98 259.521 140.247C259.729 139.674 260.103 139.255 260.641 138.991C261.174 138.724 261.908 138.615 262.843 138.666C262.678 138.468 262.576 138.26 262.537 138.043C262.497 137.825 262.52 137.601 262.604 137.37C262.742 136.99 262.988 136.713 263.344 136.539C263.708 136.362 264.196 136.254 264.808 136.214C264.536 135.847 264.368 135.453 264.304 135.03C264.241 134.602 264.296 134.151 264.468 133.677C264.669 133.139 264.934 132.684 265.263 132.31C265.597 131.939 265.982 131.66 266.417 131.474C266.847 131.286 267.316 131.195 267.825 131.202C268.333 131.209 268.859 131.321 269.404 131.537C269.622 131.624 269.833 131.727 270.039 131.846C270.247 131.961 270.446 132.09 270.636 132.235L273.756 133.476L273.12 134.481L271.424 134.108C271.455 134.297 271.453 134.498 271.419 134.712C271.391 134.927 271.335 135.151 271.251 135.382C271.059 135.911 270.798 136.355 270.468 136.716C270.145 137.073 269.771 137.34 269.345 137.517C268.932 137.693 268.476 137.773 267.977 137.758C267.485 137.739 266.966 137.624 266.42 137.413C266.267 137.352 266.131 137.291 266.009 137.231C265.89 137.164 265.786 137.101 265.696 137.039C265.347 137.021 265.069 137.058 264.86 137.152C264.654 137.24 264.519 137.372 264.455 137.548C264.403 137.691 264.404 137.824 264.459 137.947C264.513 138.057 264.605 138.163 264.736 138.265C264.869 138.362 265.04 138.468 265.248 138.582L266.245 139.13C266.838 139.454 267.297 139.785 267.623 140.122C267.954 140.462 268.157 140.823 268.23 141.205C268.31 141.584 268.269 141.999 268.105 142.451C267.889 143.046 267.576 143.513 267.165 143.854C266.76 144.198 266.269 144.418 265.691 144.516C265.206 144.6 264.665 144.597 264.069 144.504C263.473 144.412 262.835 144.231 262.154 143.96ZM262.741 142.653C263.215 142.841 263.647 142.966 264.036 143.026C264.431 143.088 264.777 143.087 265.074 143.023C265.357 142.965 265.596 142.855 265.792 142.694C265.988 142.532 266.135 142.316 266.233 142.047C266.277 141.925 266.297 141.81 266.293 141.702C266.292 141.6 266.269 141.5 266.224 141.4C266.142 141.216 265.999 141.043 265.796 140.88C265.594 140.718 265.328 140.549 264.999 140.374L263.838 139.761C263.391 139.671 262.994 139.649 262.647 139.694C262.306 139.741 262.021 139.848 261.792 140.016C261.567 140.191 261.402 140.421 261.298 140.708C261.158 141.093 261.209 141.451 261.451 141.78C261.69 142.115 262.121 142.406 262.741 142.653ZM266.906 136.178C267.276 136.325 267.633 136.345 267.978 136.236C268.325 136.122 268.635 135.911 268.909 135.604C269.189 135.293 269.412 134.912 269.576 134.461C269.652 134.251 269.691 134.059 269.692 133.883C269.699 133.709 269.669 133.552 269.602 133.412C269.545 133.276 269.455 133.155 269.331 133.049C269.213 132.946 269.064 132.858 268.885 132.787C268.607 132.676 268.334 132.64 268.064 132.678C267.803 132.712 267.553 132.808 267.315 132.966C267.084 133.12 266.873 133.326 266.68 133.583C266.492 133.842 266.337 134.14 266.215 134.476C266.155 134.641 266.117 134.796 266.102 134.942C266.092 135.089 266.105 135.226 266.139 135.354C266.215 135.73 266.47 136.005 266.906 136.178ZM274.778 144.33L281.704 133.262L283.631 134.028L276.697 145.093L274.778 144.33ZM279.523 146.217L284.78 137.813L286.324 138.427L285.501 140.076L285.55 140.095C285.885 139.857 286.25 139.652 286.642 139.48C287.037 139.303 287.449 139.196 287.88 139.16C288.316 139.125 288.763 139.199 289.22 139.381C289.721 139.58 290.11 139.848 290.386 140.185C290.663 140.522 290.824 140.91 290.87 141.351C290.915 141.791 290.845 142.268 290.659 142.78C290.577 143.006 290.47 143.24 290.338 143.484C290.213 143.724 290.08 143.955 289.937 144.176L286.84 149.127L284.889 148.351L288.067 143.252C288.194 143.057 288.299 142.878 288.383 142.716C288.472 142.556 288.544 142.402 288.598 142.253C288.73 141.89 288.739 141.581 288.626 141.328C288.517 141.077 288.289 140.882 287.94 140.744C287.559 140.592 287.13 140.591 286.651 140.742C286.173 140.892 285.681 141.191 285.176 141.639C284.671 142.087 284.185 142.679 283.719 143.413L281.483 146.996L279.523 146.217ZM291.754 151.27C291.188 151.045 290.71 150.799 290.322 150.531C289.936 150.27 289.608 149.982 289.336 149.666L289.939 148.005C290.212 148.353 290.54 148.685 290.923 149.002C291.314 149.315 291.741 149.564 292.204 149.748C292.563 149.891 292.895 149.965 293.197 149.972C293.5 149.979 293.758 149.921 293.971 149.798C294.191 149.671 294.35 149.476 294.446 149.212C294.516 149.019 294.534 148.831 294.501 148.647C294.468 148.464 294.373 148.253 294.217 148.014C294.06 147.776 293.833 147.474 293.536 147.11C293.22 146.726 292.966 146.363 292.772 146.022C292.586 145.676 292.471 145.331 292.428 144.987C292.391 144.644 292.442 144.28 292.582 143.894C292.792 143.316 293.101 142.875 293.511 142.571C293.928 142.264 294.417 142.1 294.98 142.078C295.55 142.052 296.167 142.172 296.831 142.436C297.365 142.648 297.845 142.912 298.273 143.227C298.703 143.537 299.079 143.882 299.402 144.262L298.251 145.449C298.014 145.16 297.734 144.882 297.414 144.615C297.095 144.344 296.726 144.124 296.307 143.958C295.92 143.804 295.563 143.766 295.236 143.844C294.914 143.924 294.692 144.132 294.57 144.468C294.506 144.644 294.489 144.82 294.519 144.995C294.556 145.168 294.649 145.366 294.798 145.589C294.948 145.812 295.163 146.087 295.443 146.413C295.743 146.771 295.998 147.125 296.208 147.473C296.418 147.821 296.552 148.181 296.611 148.551C296.672 148.915 296.625 149.309 296.471 149.733C296.237 150.378 295.889 150.864 295.428 151.191C294.974 151.514 294.433 151.683 293.804 151.698C293.178 151.708 292.494 151.565 291.754 151.27ZM297 153.168L302.24 144.786L304.151 145.546L298.911 153.928L297 153.168ZM304.118 143.963C303.835 143.851 303.623 143.688 303.483 143.474C303.344 143.255 303.33 142.994 303.44 142.691C303.532 142.438 303.658 142.236 303.818 142.086C303.984 141.937 304.175 141.849 304.391 141.822C304.614 141.791 304.854 141.826 305.109 141.928C305.393 142.04 305.599 142.201 305.729 142.411C305.86 142.614 305.872 142.865 305.764 143.162C305.624 143.548 305.406 143.814 305.11 143.961C304.813 144.108 304.483 144.108 304.118 143.963ZM302.368 159.954C301.274 159.519 300.494 158.972 300.028 158.315C299.567 157.665 299.469 156.973 299.735 156.241C299.943 155.668 300.316 155.249 300.855 154.984C301.388 154.717 302.122 154.609 303.057 154.66C302.892 154.462 302.79 154.254 302.75 154.037C302.711 153.819 302.733 153.595 302.817 153.364C302.955 152.984 303.202 152.707 303.558 152.533C303.921 152.356 304.409 152.248 305.022 152.208C304.75 151.841 304.582 151.447 304.517 151.024C304.455 150.595 304.509 150.145 304.681 149.671C304.883 149.133 305.148 148.678 305.477 148.304C305.811 147.933 306.195 147.654 306.631 147.468C307.06 147.28 307.53 147.189 308.038 147.196C308.546 147.203 309.073 147.314 309.617 147.531C309.835 147.618 310.047 147.721 310.253 147.84C310.461 147.954 310.66 148.084 310.85 148.229L313.97 149.47L313.334 150.474L311.637 150.102C311.668 150.291 311.667 150.492 311.633 150.706C311.605 150.921 311.548 151.145 311.464 151.376C311.272 151.905 311.011 152.349 310.681 152.709C310.358 153.066 309.984 153.334 309.558 153.511C309.145 153.687 308.689 153.767 308.19 153.752C307.699 153.733 307.18 153.618 306.633 153.406C306.481 153.346 306.344 153.285 306.223 153.224C306.104 153.158 305.999 153.094 305.909 153.033C305.561 153.015 305.282 153.052 305.074 153.146C304.867 153.234 304.732 153.366 304.668 153.542C304.616 153.685 304.618 153.818 304.673 153.941C304.727 154.051 304.819 154.157 304.95 154.259C305.083 154.356 305.253 154.462 305.461 154.576L306.458 155.124C307.051 155.448 307.51 155.779 307.836 156.116C308.168 156.456 308.37 156.817 308.443 157.199C308.524 157.578 308.482 157.993 308.318 158.445C308.102 159.039 307.789 159.507 307.379 159.848C306.974 160.191 306.482 160.412 305.905 160.51C305.419 160.594 304.879 160.59 304.283 160.498C303.687 160.406 303.048 160.225 302.368 159.954ZM302.955 158.647C303.429 158.835 303.86 158.959 304.249 159.02C304.644 159.082 304.99 159.081 305.288 159.017C305.571 158.959 305.81 158.849 306.006 158.688C306.201 158.526 306.348 158.31 306.446 158.04C306.49 157.919 306.51 157.804 306.506 157.695C306.505 157.594 306.483 157.494 306.438 157.394C306.355 157.21 306.213 157.037 306.01 156.874C305.807 156.712 305.541 156.543 305.212 156.368L304.052 155.755C303.604 155.665 303.207 155.643 302.861 155.688C302.52 155.735 302.235 155.842 302.006 156.01C301.78 156.185 301.615 156.415 301.511 156.702C301.371 157.087 301.422 157.445 301.664 157.774C301.904 158.109 302.334 158.4 302.955 158.647ZM307.119 152.172C307.489 152.319 307.847 152.339 308.192 152.23C308.538 152.116 308.848 151.905 309.122 151.598C309.403 151.287 309.625 150.906 309.789 150.455C309.865 150.245 309.904 150.053 309.906 149.877C309.913 149.703 309.883 149.546 309.815 149.406C309.759 149.27 309.668 149.149 309.545 149.043C309.427 148.939 309.278 148.852 309.098 148.78C308.821 148.67 308.547 148.634 308.278 148.672C308.016 148.706 307.766 148.802 307.528 148.96C307.298 149.114 307.086 149.32 306.893 149.577C306.705 149.836 306.551 150.134 306.429 150.47C306.369 150.635 306.331 150.79 306.316 150.935C306.306 151.083 306.318 151.22 306.353 151.347C306.428 151.724 306.683 151.999 307.119 152.172ZM310.475 158.527L317.838 146.744L319.741 147.501L318.134 150.048C318.002 150.273 317.846 150.514 317.666 150.77C317.491 151.028 317.312 151.281 317.128 151.53C316.95 151.78 316.783 152.01 316.626 152.219L316.699 152.248C317.021 152.048 317.364 151.876 317.728 151.731C318.098 151.588 318.482 151.507 318.881 151.49C319.288 151.468 319.703 151.542 320.128 151.711C320.624 151.908 321.007 152.174 321.278 152.509C321.551 152.838 321.71 153.223 321.756 153.663C321.804 154.098 321.731 154.58 321.539 155.109C321.463 155.318 321.365 155.537 321.244 155.767C321.126 155.991 320.992 156.221 320.844 156.458L317.744 161.418L315.833 160.658L319.008 155.568C319.135 155.372 319.241 155.194 319.324 155.032C319.408 154.869 319.475 154.72 319.525 154.582C319.661 154.207 319.677 153.889 319.573 153.627C319.468 153.365 319.234 153.161 318.869 153.016C318.483 152.863 318.046 152.862 317.561 153.016C317.077 153.164 316.582 153.465 316.074 153.918C315.569 154.367 315.085 154.962 314.622 155.704L312.386 159.287L310.475 158.527ZM323.09 163.733C322.431 163.471 321.949 163.109 321.643 162.647C321.345 162.182 321.333 161.572 321.607 160.818C321.661 160.669 321.728 160.51 321.808 160.34C321.896 160.167 321.994 159.992 322.102 159.814L324.826 155.452L323.52 154.932L324.035 154.078L325.81 154.056L327.541 152.532L328.741 153.01L327.582 154.865L329.885 155.781L329.04 157.128L326.745 156.215L324.01 160.582C323.941 160.687 323.871 160.801 323.802 160.925C323.739 161.045 323.689 161.157 323.651 161.262C323.561 161.51 323.559 161.73 323.645 161.922C323.731 162.113 323.913 162.265 324.191 162.375C324.403 162.459 324.615 162.519 324.827 162.552C325.039 162.586 325.278 162.609 325.542 162.619L325.011 164.081C324.775 164.095 324.484 164.074 324.137 164.017C323.787 163.967 323.439 163.872 323.09 163.733ZM328.864 166.03C328.298 165.805 327.82 165.558 327.432 165.29C327.047 165.03 326.718 164.742 326.447 164.426L327.05 162.765C327.322 163.113 327.65 163.445 328.034 163.761C328.425 164.075 328.851 164.323 329.314 164.507C329.674 164.65 330.005 164.725 330.307 164.732C330.61 164.739 330.868 164.681 331.081 164.558C331.302 164.431 331.46 164.235 331.556 163.971C331.626 163.778 331.644 163.59 331.611 163.407C331.578 163.224 331.483 163.013 331.327 162.774C331.171 162.535 330.944 162.234 330.646 161.87C330.33 161.486 330.076 161.123 329.882 160.781C329.696 160.436 329.581 160.091 329.538 159.746C329.501 159.403 329.552 159.039 329.692 158.654C329.902 158.076 330.212 157.635 330.621 157.331C331.038 157.024 331.527 156.859 332.09 156.837C332.66 156.812 333.277 156.931 333.941 157.196C334.475 157.408 334.955 157.671 335.383 157.986C335.813 158.296 336.189 158.641 336.512 159.022L335.361 160.209C335.124 159.919 334.845 159.641 334.524 159.375C334.205 159.103 333.836 158.884 333.417 158.717C333.03 158.563 332.673 158.525 332.346 158.603C332.024 158.683 331.802 158.891 331.68 159.227C331.616 159.403 331.599 159.579 331.629 159.755C331.666 159.927 331.759 160.125 331.908 160.348C332.058 160.572 332.273 160.846 332.553 161.172C332.853 161.531 333.108 161.884 333.318 162.233C333.528 162.581 333.662 162.94 333.721 163.31C333.782 163.675 333.735 164.069 333.581 164.493C333.347 165.137 333 165.623 332.538 165.95C332.084 166.274 331.543 166.443 330.915 166.458C330.288 166.467 329.605 166.324 328.864 166.03ZM340.856 161.525C341.214 161.156 341.58 160.766 341.954 160.354C342.328 159.942 342.691 159.535 343.042 159.132C343.394 158.73 343.708 158.363 343.984 158.032L345.887 158.789L345.886 158.997C345.573 159.326 345.214 159.672 344.809 160.033C344.41 160.392 343.991 160.748 343.551 161.103C343.118 161.454 342.696 161.784 342.285 162.093L340.856 161.525ZM337.54 160.206C337.898 159.838 338.264 159.447 338.638 159.035C339.017 158.625 339.383 158.219 339.735 157.817C340.092 157.417 340.406 157.05 340.676 156.716L342.571 157.47L342.57 157.678C342.252 158.005 341.893 158.351 341.493 158.715C341.095 159.073 340.678 159.431 340.244 159.787C339.816 160.14 339.394 160.47 338.977 160.777L337.54 160.206Z" fill="white"/>
<defs>
<filter id="filter0_d_755_141" x="-2" y="44.074" width="366" height="255.926" filterUnits="userSpaceOnUse" color-interpolation-filters="sRGB">
<feFlood flood-opacity="0" result="BackgroundImageFix"/>
<feColorMatrix in="SourceAlpha" type="matrix" values="0 0 0 0 0 0 0 0 0 0 0 0 0 0 0 0 0 0 127 0" result="hardAlpha"/>
<feOffset dy="4"/>
<feGaussianBlur stdDeviation="2"/>
<feComposite in2="hardAlpha" operator="out"/>
<feColorMatrix type="matrix" values="0 0 0 0 0 0 0 0 0 0 0 0 0 0 0 0 0 0 0.25 0"/>
<feBlend mode="normal" in2="BackgroundImageFix" result="effect1_dropShadow_755_141"/>
<feBlend mode="normal" in="SourceGraphic" in2="effect1_dropShadow_755_141" result="shape"/>
</filter>
<filter id="filter1_i_755_141" x="0" y="0.0870361" width="360" height="292.914" filterUnits="userSpaceOnUse" color-interpolation-filters="sRGB">
<feFlood flood-opacity="0" result="BackgroundImageFix"/>
<feBlend mode="normal" in="SourceGraphic" in2="BackgroundImageFix" result="shape"/>
<feColorMatrix in="SourceAlpha" type="matrix" values="0 0 0 0 0 0 0 0 0 0 0 0 0 0 0 0 0 0 127 0" result="hardAlpha"/>
<feOffset dy="4"/>
<feGaussianBlur stdDeviation="2"/>
<feComposite in2="hardAlpha" operator="arithmetic" k2="-1" k3="1"/>
<feColorMatrix type="matrix" values="0 0 0 0 0 0 0 0 0 0 0 0 0 0 0 0 0 0 0.25 0"/>
<feBlend mode="normal" in2="shape" result="effect1_innerShadow_755_141"/>
</filter>
<filter id="filter2_i_755_141" x="0" y="58.0698" width="360" height="237.93" filterUnits="userSpaceOnUse" color-interpolation-filters="sRGB">
<feFlood flood-opacity="0" result="BackgroundImageFix"/>
<feBlend mode="normal" in="SourceGraphic" in2="BackgroundImageFix" result="shape"/>
<feColorMatrix in="SourceAlpha" type="matrix" values="0 0 0 0 0 0 0 0 0 0 0 0 0 0 0 0 0 0 127 0" result="hardAlpha"/>
<feOffset dy="4"/>
<feGaussianBlur stdDeviation="2"/>
<feComposite in2="hardAlpha" operator="arithmetic" k2="-1" k3="1"/>
<feColorMatrix type="matrix" values="0 0 0 0 0 0 0 0 0 0 0 0 0 0 0 0 0 0 0.25 0"/>
<feBlend mode="normal" in2="shape" result="effect1_innerShadow_755_141"/>
</filter>
</defs>
</svg>
